<svg width="1200" height="720" viewBox="0 0 1200 720" fill="none" xmlns="http://www.w3.org/2000/svg" role="img" aria-label="Privacy illustration">
  <defs>
    <linearGradient id="bg" x1="150" y1="90" x2="1050" y2="640" gradientUnits="userSpaceOnUse">
      <stop stop-color="#EDE9FE"/>
      <stop offset="1" stop-color="#F8FAFC"/>
    </linearGradient>
    <linearGradient id="accent" x1="430" y1="220" x2="770" y2="560" gradientUnits="userSpaceOnUse">
      <stop stop-color="#8B5CF6"/>
      <stop offset="1" stop-color="#7C3AED"/>
    </linearGradient>
    <filter id="shadow" x="-20%" y="-20%" width="140%" height="140%" color-interpolation-filters="sRGB">
      <feDropShadow dx="0" dy="18" stdDeviation="22" flood-color="#111827" flood-opacity="0.12"/>
    </filter>
  </defs>

  <rect x="80" y="70" width="1040" height="580" rx="28" fill="url(#bg)"/>
  <rect x="120" y="110" width="960" height="500" rx="26" fill="white" filter="url(#shadow)"/>

  <g opacity="0.95">
    <rect x="170" y="160" width="860" height="120" rx="20" fill="#F8FAFC" stroke="#E5E7EB"/>
    <rect x="200" y="190" width="240" height="14" rx="7" fill="#D1D5DB"/>
    <rect x="200" y="214" width="520" height="12" rx="6" fill="#E5E7EB"/>
    <rect x="200" y="236" width="460" height="12" rx="6" fill="#E5E7EB"/>
    <rect x="820" y="186" width="180" height="68" rx="18" fill="#EDE9FE"/>
    <path d="M856 220l22 22 44-52" stroke="url(#accent)" stroke-width="10" stroke-linecap="round" stroke-linejoin="round"/>
  </g>

  <g>
    <path
      d="M600 318c96 0 174 42 174 94v66c0 90-78 162-174 162s-174-72-174-162v-66c0-52 78-94 174-94Z"
      fill="#F8FAFC"
      stroke="#E5E7EB"
      stroke-width="2"
    />
    <path
      d="M600 360c64 0 116 28 116 62v46c0 60-52 108-116 108s-116-48-116-108v-46c0-34 52-62 116-62Z"
      fill="#EDE9FE"
    />
    <path
      d="M600 414c22 0 40 18 40 40 0 16-10 30-24 36v40h-32v-40c-14-6-24-20-24-36 0-22 18-40 40-40Z"
      fill="url(#accent)"
    />
    <path
      d="M548 406v-22c0-28 24-50 52-50s52 22 52 50v22"
      stroke="#7C3AED"
      stroke-width="10"
      stroke-linecap="round"
    />
  </g>

  <g opacity="0.7">
    <circle cx="280" cy="520" r="10" fill="#8B5CF6"/>
    <circle cx="930" cy="520" r="10" fill="#25D366"/>
    <circle cx="980" cy="340" r="8" fill="#9CA3AF"/>
  </g>
</svg>

